<svg xmlns="http://www.w3.org/2000/svg" viewBox="0 0 471 470"><defs><style>.a{fill:#fff;}</style></defs><title>Untitled-1</title><rect class="a" x="1.5" y="1.5" width="147" height="147"/><path d="M162,18V162H18V18H162m3-3H15V165H165V15Z" transform="translate(-15 -15)"/><rect class="a" x="161.5" y="1.5" width="147" height="147"/><path d="M322,18V162H178V18H322m3-3H175V165H325V15Z" transform="translate(-15 -15)"/><rect class="a" x="322.5" y="1.5" width="147" height="147"/><path d="M483,18V162H339V18H483m3-3H336V165H486V15Z" transform="translate(-15 -15)"/><rect x="321.5" y="160.5" width="149" height="149"/><path d="M485,176V324H337V176H485m1-1H336V325H486V175Z" transform="translate(-15 -15)"/><rect x="321.5" y="320.5" width="149" height="149"/><path d="M485,336V484H337V336H485m1-1H336V485H486V335Z" transform="translate(-15 -15)"/><rect x="160.5" y="160.5" width="149" height="149"/><path d="M324,176V324H176V176H324m1-1H175V325H325V175Z" transform="translate(-15 -15)"/><rect x="160.5" y="320.5" width="149" height="149"/><path d="M324,336V484H176V336H324m1-1H175V485H325V335Z" transform="translate(-15 -15)"/><rect x="0.5" y="160.5" width="149" height="149"/><path d="M164,176V324H16V176H164m1-1H15V325H165V175Z" transform="translate(-15 -15)"/><rect x="0.5" y="320.5" width="149" height="149"/><path d="M164,336V484H16V336H164m1-1H15V485H165V335Z" transform="translate(-15 -15)"/><path d="M78.63,131.81v16.41H72.25V117.9h6.38v5.53A10.11,10.11,0,0,1,82.76,119a11.78,11.78,0,0,1,6-1.6q7.19,0,9.75,5.93,4.5-5.93,11.23-5.93a11.27,11.27,0,0,1,8.29,3.14q3.17,3.14,3.16,9.06v18.58h-6.38V131.58q0-8.39-7-8.38a8.49,8.49,0,0,0-5.68,2.08,7.88,7.88,0,0,0-2.53,6.07v16.87H93.22V131.58q0-4.34-1.54-6.36a5.71,5.71,0,0,0-4.84-2,8.35,8.35,0,0,0-5.76,2.2A8.17,8.17,0,0,0,78.63,131.81Z" transform="translate(-15 -15)"/><path d="M133.86,160.31a11,11,0,0,1-7.52-3l2.91-5.19a6,6,0,0,0,4.13,1.88,4.4,4.4,0,0,0,3.48-1.54,5,5,0,0,0,1.34-3.36q0-.79-12.26-31.18h6.84l9.06,22.34,9.07-22.34h6.84l-14.71,36a10.94,10.94,0,0,1-3.76,4.68A9.27,9.27,0,0,1,133.86,160.31Z" transform="translate(-15 -15)"/><path d="M230,123v15.39a5,5,0,0,0,1.14,3.45,4.06,4.06,0,0,0,3.19,1.28,5.41,5.41,0,0,0,3.93-2l2.62,4.5a10.89,10.89,0,0,1-7.44,3,9.58,9.58,0,0,1-6.95-2.82,10.17,10.17,0,0,1-2.88-7.61V123h-3.82V117.9h3.82v-9.52H230v9.52h8V123Z" transform="translate(-15 -15)"/><path d="M271.13,144.15a16.61,16.61,0,0,1-22.8,0,15.75,15.75,0,0,1,0-22.17,16.58,16.58,0,0,1,22.8,0,15.75,15.75,0,0,1,0,22.17Zm-18.27-3.93a9.93,9.93,0,0,0,13.74,0,10.8,10.8,0,0,0,0-14.31,9.9,9.9,0,0,0-13.74,0,10.83,10.83,0,0,0,0,14.31Z" transform="translate(-15 -15)"/><path d="M299.18,117.44a14.43,14.43,0,0,1,10.43,4.22q4.32,4.22,4.33,11.23a15.57,15.57,0,0,1-4.31,11.4,13.59,13.59,0,0,1-10,4.39q-5.72,0-10.29-5v15.62h-6.38V117.9h6.38v5.3Q293.08,117.44,299.18,117.44Zm-10,15.68a9.9,9.9,0,0,0,2.62,7.1,8.49,8.49,0,0,0,6.39,2.76,9,9,0,0,0,6.55-2.74,9.49,9.49,0,0,0,2.79-7.09,10.1,10.1,0,0,0-2.73-7.24,8.74,8.74,0,0,0-6.56-2.88,8.38,8.38,0,0,0-6.44,2.88A10.29,10.29,0,0,0,289.2,133.12Z" transform="translate(-15 -15)"/><path d="M366.62,131.81v16.41h-6.38V117.9h6.38v5.53A11.89,11.89,0,0,1,385,120.58q3.17,3.14,3.17,9.06v18.58h-6.39V131.58q0-8.39-6.95-8.38a8.35,8.35,0,0,0-5.76,2.2A8.17,8.17,0,0,0,366.62,131.81Z" transform="translate(-15 -15)"/><path d="M397.46,111.86a4,4,0,1,1,2.85,1.2A3.89,3.89,0,0,1,397.46,111.86Zm6,36.36h-6.38V117.9h6.38Z" transform="translate(-15 -15)"/><path d="M419.06,131.81v16.41h-6.38V117.9h6.38v5.53a11.89,11.89,0,0,1,18.38-2.85q3.17,3.14,3.17,9.06v18.58h-6.39V131.58q0-8.39-7-8.38a8.32,8.32,0,0,0-5.76,2.2A8.17,8.17,0,0,0,419.06,131.81Z" transform="translate(-15 -15)"/><path d="M477.71,135.86H453.94a6.91,6.91,0,0,0,3,5.32,10.65,10.65,0,0,0,6.39,2q5.7,0,8.66-3.59l3.65,4a17,17,0,0,1-12.77,5.07A15.19,15.19,0,0,1,452,144.43q-4.47-4.25-4.47-11.4c0-4.76,1.52-8.56,4.56-11.37a15.31,15.31,0,0,1,10.74-4.22,15.56,15.56,0,0,1,10.52,3.74q4.33,3.73,4.33,10.29Zm-23.77-5h17.39a7.3,7.3,0,0,0-2.4-5.87,8.72,8.72,0,0,0-5.89-2,10.12,10.12,0,0,0-6.3,2.13A6.93,6.93,0,0,0,453.94,130.84Z" transform="translate(-15 -15)"/></svg>